{"accessors":[{"bufferView":0,"componentType":5126,"count":1352430,"max":[27.492469787597656,18.5,3.6831719875335693],"min":[-6.967394828796387,-44.82672882080078,-3.6831719875335693],"type":"VEC3"},{"bufferView":1,"componentType":5126,"count":1352430,"type":"VEC3"},{"bufferView":2,"componentType":5126,"count":1352430,"type":"VEC2"},{"bufferView":3,"componentType":5125,"count":1352430,"type":"SCALAR"}],"asset":{"generator":"Luxion KeyShot","version":"2.0"},"bufferViews":[{"buffer":0,"byteLength":16229160,"byteOffset":0,"byteStride":12},{"buffer":0,"byteLength":16229160,"byteOffset":16229160,"byteStride":12},{"buffer":0,"byteLength":10819440,"byteOffset":32458320,"byteStride":8},{"buffer":0,"byteLength":5409720,"byteOffset":43277760}],"buffers":[{"byteLength":48687480,"uri":"./圆规_resources/圆规.bin"}],"cameras":[{"name":"active","perspective":{"aspectRatio":1.0,"yfov":0.6911154697478635,"zfar":200.19764709472656,"znear":178.25955200195313},"type":"perspective"}],"images":[{"uri":"./圆规_resources/mesh_3_normal.jpeg"},{"uri":"./圆规_resources/mesh_3_occlusion.jpeg"},{"uri":"./圆规_resources/mesh_3_color.jpeg"},{"uri":"./圆规_resources/mesh_3_roughness_metalness_transmission.jpeg"}],"materials":[{"doubleSided":true,"name":"Painted Chipped Metal #1","normalTexture":{"index":0,"scale":1},"occlusionTexture":{"index":1},"pbrMetallicRoughness":{"baseColorTexture":{"index":2},"metallicRoughnessTexture":{"index":3}}}],"meshes":[{"name":"mesh-mesh","primitives":[{"attributes":{"NORMAL":1,"POSITION":0,"TEXCOORD_0":2},"indices":3,"material":0,"mode":4}]}],"nodes":[{"camera":0,"matrix":[0.0009405815193008391,-1.769028633580305e-10,0.00033956796535396027,0.0,1.7876584342941787e-05,0.000998613312031745,-4.95164736347041e-05,0.0,-0.0003390970826148987,5.2644595503807066e-05,0.0009392772316932678,0.0,-0.06892822265625,0.04385855102539062,0.17589399719238283,1.0],"name":"active"},{"mesh":0,"name":"mesh"},{"children":[1],"matrix":[1.0,0.0,0.0,0.0,0.0,1.0,0.0,0.0,0.0,0.0,1.0,0.0,-10.262537002563477,44.82672882080078,0.0,1.0],"name":"圆规"},{"children":[2],"name":"Default"},{"children":[3],"matrix":[0.001,0.0,0.0,0.0,0.0,0.001,0.0,0.0,0.0,0.0,0.001,0.0,0.0,0.0,0.0,1.0],"name":"lux_root"}],"samplers":[{"magFilter":9729,"minFilter":9987,"wrapS":10497,"wrapT":10497},{"magFilter":9729,"minFilter":9987,"wrapS":10497,"wrapT":10497},{"magFilter":9729,"minFilter":9987,"wrapS":10497,"wrapT":10497},{"magFilter":9729,"minFilter":9987,"wrapS":10497,"wrapT":10497}],"scenes":[{"nodes":[0,4]}],"textures":[{"sampler":0,"source":0},{"sampler":1,"source":1},{"sampler":2,"source":2},{"sampler":3,"source":3}]} 