{"accessors":[{"bufferView":0,"componentType":5126,"count":1714284,"max":[224.33596801757813,13.501880645751953,95.0447998046875],"min":[12.500000953674316,-1.502085566520691,7.574399948120117],"type":"VEC3"},{"bufferView":1,"componentType":5126,"count":1714284,"type":"VEC3"},{"bufferView":2,"componentType":5126,"count":1714284,"type":"VEC2"},{"bufferView":3,"componentType":5125,"count":1714284,"type":"SCALAR"},{"bufferView":4,"componentType":5126,"count":156,"max":[235.0,14.0,113.0],"min":[0.0,-3.0,0.0],"type":"VEC3"},{"bufferView":5,"componentType":5126,"count":156,"type":"VEC3"},{"bufferView":6,"componentType":5126,"count":156,"type":"VEC2"},{"bufferView":7,"componentType":5125,"count":156,"type":"SCALAR"},{"bufferView":8,"componentType":5126,"count":685716,"max":[224.3000030517578,13.498830795288086,105.1083984375],"min":[12.500000953674316,-1.4988306760787964,45.783599853515625],"type":"VEC3"},{"bufferView":9,"componentType":5126,"count":685716,"type":"VEC3"},{"bufferView":10,"componentType":5126,"count":685716,"type":"VEC2"},{"bufferView":11,"componentType":5125,"count":685716,"type":"SCALAR"},{"bufferView":12,"componentType":5126,"count":19656,"max":[218.8000030517578,7.999378204345703,106.0],"min":[18.0,4.000621795654297,9.0],"type":"VEC3"},{"bufferView":13,"componentType":5126,"count":19656,"type":"VEC3"},{"bufferView":14,"componentType":5126,"count":19656,"type":"VEC2"},{"bufferView":15,"componentType":5125,"count":19656,"type":"SCALAR"},{"bufferView":16,"componentType":5126,"count":18624,"max":[235.0,15.0,79.0],"min":[0.0,-4.0,59.0],"type":"VEC3"},{"bufferView":17,"componentType":5126,"count":18624,"type":"VEC3"},{"bufferView":18,"componentType":5126,"count":18624,"type":"VEC2"},{"bufferView":19,"componentType":5125,"count":18624,"type":"SCALAR"}],"asset":{"generator":"Luxion KeyShot","version":"2.0"},"bufferViews":[{"buffer":0,"byteLength":20571408,"byteOffset":0,"byteStride":12},{"buffer":0,"byteLength":20571408,"byteOffset":20571408,"byteStride":12},{"buffer":0,"byteLength":13714272,"byteOffset":41142816,"byteStride":8},{"buffer":0,"byteLength":6857136,"byteOffset":54857088},{"buffer":0,"byteLength":1872,"byteOffset":61714224,"byteStride":12},{"buffer":0,"byteLength":1872,"byteOffset":61716096,"byteStride":12},{"buffer":0,"byteLength":1248,"byteOffset":61717968,"byteStride":8},{"buffer":0,"byteLength":624,"byteOffset":61719216},{"buffer":0,"byteLength":8228592,"byteOffset":61719840,"byteStride":12},{"buffer":0,"byteLength":8228592,"byteOffset":69948432,"byteStride":12},{"buffer":0,"byteLength":5485728,"byteOffset":78177024,"byteStride":8},{"buffer":0,"byteLength":2742864,"byteOffset":83662752},{"buffer":0,"byteLength":235872,"byteOffset":86405616,"byteStride":12},{"buffer":0,"byteLength":235872,"byteOffset":86641488,"byteStride":12},{"buffer":0,"byteLength":157248,"byteOffset":86877360,"byteStride":8},{"buffer":0,"byteLength":78624,"byteOffset":87034608},{"buffer":0,"byteLength":223488,"byteOffset":87113232,"byteStride":12},{"buffer":0,"byteLength":223488,"byteOffset":87336720,"byteStride":12},{"buffer":0,"byteLength":148992,"byteOffset":87560208,"byteStride":8},{"buffer":0,"byteLength":74496,"byteOffset":87709200}],"buffers":[{"byteLength":87783696,"uri":"./算盘_resources/算盘.bin"}],"cameras":[{"name":"active","perspective":{"aspectRatio":1.0,"yfov":0.6911154697478635,"zfar":346.2275695800781,"znear":194.7999725341797},"type":"perspective"}],"images":[{"uri":"./算盘_resources/mesh_564236434_normal.jpeg"},{"uri":"./算盘_resources/mesh_564236434_occlusion.jpeg"},{"uri":"./算盘_resources/mesh_564236434_color.jpeg"},{"uri":"./算盘_resources/mesh_564236434_roughness_metalness_transmission.jpeg"},{"uri":"./算盘_resources/mesh_7_normal.jpeg"},{"uri":"./算盘_resources/mesh_7_occlusion.jpeg"},{"uri":"./算盘_resources/mesh_7_color.jpeg"},{"uri":"./算盘_resources/mesh_7_roughness_metalness_transmission.jpeg"},{"uri":"./算盘_resources/mesh_564236436_normal.jpeg"},{"uri":"./算盘_resources/mesh_564236436_occlusion.jpeg"},{"uri":"./算盘_resources/mesh_564236436_color.jpeg"},{"uri":"./算盘_resources/mesh_564236436_roughness_metalness_transmission.jpeg"},{"uri":"./算盘_resources/mesh_11_normal.jpeg"},{"uri":"./算盘_resources/mesh_11_occlusion.jpeg"},{"uri":"./算盘_resources/mesh_11_color.jpeg"},{"uri":"./算盘_resources/mesh_11_roughness_metalness_transmission.jpeg"},{"uri":"./算盘_resources/mesh_13_occlusion.jpeg"}],"materials":[{"doubleSided":true,"name":"Wood Planks #3","normalTexture":{"index":0,"scale":1},"occlusionTexture":{"index":1},"pbrMetallicRoughness":{"baseColorTexture":{"index":2},"metallicRoughnessTexture":{"index":3}}},{"doubleSided":true,"name":"Wood Planks #1","normalTexture":{"index":4,"scale":1},"occlusionTexture":{"index":5},"pbrMetallicRoughness":{"baseColorTexture":{"index":6},"metallicRoughnessTexture":{"index":7}}},{"doubleSided":true,"name":"Wood Planks #2","normalTexture":{"index":8,"scale":1},"occlusionTexture":{"index":9},"pbrMetallicRoughness":{"baseColorTexture":{"index":10},"metallicRoughnessTexture":{"index":11}}},{"doubleSided":true,"name":"Maple Wood Satin #1","normalTexture":{"index":12,"scale":1},"occlusionTexture":{"index":13},"pbrMetallicRoughness":{"baseColorTexture":{"index":14},"metallicRoughnessTexture":{"index":15}}},{"doubleSided":true,"name":"Gold 24k Polished #6","occlusionTexture":{"index":16},"pbrMetallicRoughness":{"baseColorFactor":[1.0,0.7668747305870056,0.3370361328125,1.0],"metallicFactor":1.0,"roughnessFactor":0.10000000149011612}}],"meshes":[{"name":"mesh-mesh","primitives":[{"attributes":{"NORMAL":1,"POSITION":0,"TEXCOORD_0":2},"indices":3,"material":0,"mode":4}]},{"name":"mesh-mesh","primitives":[{"attributes":{"NORMAL":5,"POSITION":4,"TEXCOORD_0":6},"indices":7,"material":1,"mode":4}]},{"name":"mesh-mesh","primitives":[{"attributes":{"NORMAL":9,"POSITION":8,"TEXCOORD_0":10},"indices":11,"material":2,"mode":4}]},{"name":"mesh-mesh","primitives":[{"attributes":{"NORMAL":13,"POSITION":12,"TEXCOORD_0":14},"indices":15,"material":3,"mode":4}]},{"name":"mesh-mesh","primitives":[{"attributes":{"NORMAL":17,"POSITION":16,"TEXCOORD_0":18},"indices":19,"material":4,"mode":4}]}],"nodes":[{"camera":0,"matrix":[0.0008844018411463992,-1.806762810474538e-10,0.00046672629346458194,0.0,0.0001208366704763095,0.000965903547014861,-0.00022897359936182373,0.0,-0.00045081251859664916,0.00025890231132507323,0.0008542468547821045,0.0,-0.11857260894775391,0.09821617889404297,0.2408059539794922,1.0],"name":"active"},{"name":"New Model Set"},{"matrix":[1.0,0.0,0.0,0.0,0.0,1.224646799147353e-16,-0.9999999999999998,0.0,0.0,0.9999999999999998,1.224646799147353e-16,0.0,0.0,-42.008399999999995,70.3851,1.0],"mesh":0,"name":"mesh"},{"children":[2],"matrix":[1.0,0.0,0.0,0.0,0.0,1.0,0.0,0.0,0.0,0.0,1.0,0.0,-118.4,1.4988,-53.0,1.0],"name":"算盘_下珠子"},{"matrix":[1.0,0.0,0.0,0.0,0.0,1.224646799147353e-16,-0.9999999999999998,0.0,0.0,0.9999999999999998,1.224646799147353e-16,0.0,0.0,-43.37193270803494,73.63180894686253,1.0],"mesh":1,"name":"mesh"},{"children":[4],"matrix":[1.0,0.0,0.0,0.0,0.0,1.0,0.0,0.0,0.0,0.0,1.0,0.0,-117.5,3.0,-56.5,1.0],"name":"算盘_主体"},{"mesh":2,"name":"mesh"},{"children":[6],"matrix":[0.9999999999999999,-1.3877787807814457e-17,-4.622231866529366e-33,0.0,2.8399943515866466e-33,1.2246467991473535e-16,-1.0,0.0,3.469446951953614e-18,0.9999999999999999,1.2246467991473535e-16,0.0,-117.94196539204661,-40.95439999999884,17.240885605555373,1.0],"name":"算盘_上珠子"},{"matrix":[1.0,0.0,0.0,0.0,0.0,1.0,0.0,0.0,0.0,0.0,1.0999999999999999,0.0,-1.4210854715202004e-14,8.881784197001e-16,-13.171370714513433,1.0],"mesh":3,"name":"mesh"},{"children":[8],"matrix":[1.0,0.0,0.0,0.0,0.0,2.220446049250313e-16,1.0000000000000016,0.0,0.0,-1.0000000000000016,2.220446049250313e-16,0.0,-118.39999999999982,67.75845662663028,5.692070829059877,1.0],"name":"算盘_柱子"},{"mesh":4,"name":"mesh"},{"children":[10],"matrix":[1.0,0.0,0.0,0.0,0.0,5.4480706266826135e-30,1.0000000000000002,0.0,0.0,-1.0000000000000002,5.4480706266826135e-30,0.0,-117.4999999999999,97.74985668086758,6.090067062447848,1.0],"name":"算盘_装饰"},{"children":[3,5,7,9,11],"name":"算盘"},{"children":[12],"name":"Default"},{"children":[1,13],"matrix":[0.001,0.0,0.0,0.0,0.0,0.001,0.0,0.0,0.0,0.0,0.001,0.0,0.0,0.0,0.0,1.0],"name":"lux_root"}],"samplers":[{"magFilter":9729,"minFilter":9987,"wrapS":10497,"wrapT":10497},{"magFilter":9729,"minFilter":9987,"wrapS":10497,"wrapT":10497},{"magFilter":9729,"minFilter":9987,"wrapS":10497,"wrapT":10497},{"magFilter":9729,"minFilter":9987,"wrapS":10497,"wrapT":10497},{"magFilter":9729,"minFilter":9987,"wrapS":10497,"wrapT":10497},{"magFilter":9729,"minFilter":9987,"wrapS":10497,"wrapT":10497},{"magFilter":9729,"minFilter":9987,"wrapS":10497,"wrapT":10497},{"magFilter":9729,"minFilter":9987,"wrapS":10497,"wrapT":10497},{"magFilter":9729,"minFilter":9987,"wrapS":10497,"wrapT":10497},{"magFilter":9729,"minFilter":9987,"wrapS":10497,"wrapT":10497},{"magFilter":9729,"minFilter":9987,"wrapS":10497,"wrapT":10497},{"magFilter":9729,"minFilter":9987,"wrapS":10497,"wrapT":10497},{"magFilter":9729,"minFilter":9987,"wrapS":10497,"wrapT":10497},{"magFilter":9729,"minFilter":9987,"wrapS":10497,"wrapT":10497},{"magFilter":9729,"minFilter":9987,"wrapS":10497,"wrapT":10497},{"magFilter":9729,"minFilter":9987,"wrapS":10497,"wrapT":10497},{"magFilter":9729,"minFilter":9987,"wrapS":10497,"wrapT":10497}],"scenes":[{"nodes":[0,14]}],"textures":[{"sampler":0,"source":0},{"sampler":1,"source":1},{"sampler":2,"source":2},{"sampler":3,"source":3},{"sampler":4,"source":4},{"sampler":5,"source":5},{"sampler":6,"source":6},{"sampler":7,"source":7},{"sampler":8,"source":8},{"sampler":9,"source":9},{"sampler":10,"source":10},{"sampler":11,"source":11},{"sampler":12,"source":12},{"sampler":13,"source":13},{"sampler":14,"source":14},{"sampler":15,"source":15},{"sampler":16,"source":16}]}   