{"accessors":[{"bufferView":0,"componentType":5126,"count":458046,"max":[19.0,8.406158447265625,1.0346174240112305],"min":[-0.00900768581777811,0.20000000298023224,-0.20000000298023224],"type":"VEC3"},{"bufferView":1,"componentType":5126,"count":458046,"type":"VEC3"},{"bufferView":2,"componentType":5126,"count":458046,"type":"VEC2"},{"bufferView":3,"componentType":5125,"count":458046,"type":"SCALAR"}],"asset":{"generator":"Luxion KeyShot","version":"2.0"},"bufferViews":[{"buffer":0,"byteLength":5496552,"byteOffset":0,"byteStride":12},{"buffer":0,"byteLength":5496552,"byteOffset":5496552,"byteStride":12},{"buffer":0,"byteLength":3664368,"byteOffset":10993104,"byteStride":8},{"buffer":0,"byteLength":1832184,"byteOffset":14657472}],"buffers":[{"byteLength":16489656,"uri":"./铜尺_resources/铜尺.bin"}],"cameras":[{"name":"active","perspective":{"aspectRatio":1.0,"yfov":0.6911154697478635,"zfar":36.46085739135742,"znear":24.8260555267334},"type":"perspective"}],"images":[{"uri":"./铜尺_resources/mesh_3_normal.jpeg"},{"uri":"./铜尺_resources/mesh_3_occlusion.jpeg"},{"uri":"./铜尺_resources/mesh_3_roughness_metalness_transmission.jpeg"}],"materials":[{"doubleSided":true,"name":"Aluminum Brushed 90° #1","normalTexture":{"index":0,"scale":1},"occlusionTexture":{"index":1},"pbrMetallicRoughness":{"baseColorFactor":[0.7357357144355774,0.4985674321651459,0.024230770766735077,1.0],"metallicRoughnessTexture":{"index":2}}}],"meshes":[{"name":"mesh-mesh","primitives":[{"attributes":{"NORMAL":1,"POSITION":0,"TEXCOORD_0":2},"indices":3,"material":0,"mode":4}]}],"nodes":[{"camera":0,"matrix":[0.0009105049588736059,-2.041666062879699e-10,0.0004134981832601499,0.0,0.00017726374600525693,0.000903450454966952,-0.00039032658871524233,0.0,-0.00037357503175735474,0.0004286925196647644,0.0008225961327552795,0.0,-0.011932187080383301,0.01834457588195801,0.02441132926940918,1.0],"name":"active"},{"mesh":0,"name":"mesh"},{"children":[1],"matrix":[1.0,0.0,0.0,0.0,0.0,1.0,0.0,0.0,0.0,0.0,1.0,0.0,-9.495495796203613,-0.20000000298023224,-0.4173087179660797,1.0],"name":"铜尺"},{"children":[2],"name":"Default"},{"children":[3],"matrix":[0.001,0.0,0.0,0.0,0.0,0.001,0.0,0.0,0.0,0.0,0.001,0.0,0.0,0.0,0.0,1.0],"name":"lux_root"}],"samplers":[{"magFilter":9729,"minFilter":9987,"wrapS":10497,"wrapT":10497},{"magFilter":9729,"minFilter":9987,"wrapS":10497,"wrapT":10497},{"magFilter":9729,"minFilter":9987,"wrapS":10497,"wrapT":10497}],"scenes":[{"nodes":[0,4]}],"textures":[{"sampler":0,"source":0},{"sampler":1,"source":1},{"sampler":2,"source":2}]}  