{"accessors":[{"bufferView":0,"componentType":5126,"count":41772,"max":[4.73074197769165,4.95876932144165,12.604061126708984],"min":[-4.73074197769165,-4.95876932144165,0.0],"type":"VEC3"},{"bufferView":1,"componentType":5126,"count":41772,"type":"VEC3"},{"bufferView":2,"componentType":5126,"count":41772,"type":"VEC2"},{"bufferView":3,"componentType":5125,"count":41772,"type":"SCALAR"}],"asset":{"generator":"Luxion KeyShot","version":"2.0"},"bufferViews":[{"buffer":0,"byteLength":501264,"byteOffset":0,"byteStride":12},{"buffer":0,"byteLength":501264,"byteOffset":501264,"byteStride":12},{"buffer":0,"byteLength":334176,"byteOffset":1002528,"byteStride":8},{"buffer":0,"byteLength":167088,"byteOffset":1336704}],"buffers":[{"byteLength":1503792,"uri":"./度量衡_resources/度量衡.bin"}],"cameras":[{"name":"active","perspective":{"aspectRatio":1.0,"yfov":0.6911154697478635,"zfar":50.187644958496094,"znear":33.056541442871094},"type":"perspective"}],"images":[{"uri":"./度量衡_resources/mesh_3_normal.jpeg"},{"uri":"./度量衡_resources/mesh_3_occlusion.jpeg"},{"uri":"./度量衡_resources/mesh_3_color.jpeg"},{"uri":"./度量衡_resources/mesh_3_roughness_metalness_transmission.jpeg"}],"materials":[{"doubleSided":true,"name":"Painted Chipped Metal #1","normalTexture":{"index":0,"scale":1},"occlusionTexture":{"index":1},"pbrMetallicRoughness":{"baseColorTexture":{"index":2},"metallicRoughnessTexture":{"index":3}}}],"meshes":[{"name":"mesh-mesh","primitives":[{"attributes":{"NORMAL":1,"POSITION":0,"TEXCOORD_0":2},"indices":3,"material":0,"mode":4}]}],"nodes":[{"camera":0,"matrix":[0.0008607332815659064,-1.8769055731837627e-10,0.0005090562156356273,0.0,0.00019275718814769236,0.0009255376116474703,-0.00032592147642858133,0.0,-0.00047115060687065127,0.0003786557018756867,0.0007966410517692566,0.0,-0.01887669372558594,0.021439889907836913,0.03398821258544922,1.0],"name":"active"},{"matrix":[1.0,0.0,0.0,0.0,0.0,1.2246467991473532e-16,-0.9999999999999998,0.0,0.0,0.9999999999999998,1.2246467991473532e-16,0.0,0.0,-4.557781442831708,6.211999999999999,1.0],"mesh":0,"name":"mesh"},{"children":[1],"matrix":[1.0,0.0,0.0,0.0,0.0,1.0,0.0,0.0,0.0,0.0,1.0,0.0,0.0,4.95876932144165,-6.302030563354492,1.0],"name":"秦衡"},{"children":[2],"name":"Default"},{"children":[3],"matrix":[0.001,0.0,0.0,0.0,0.0,0.001,0.0,0.0,0.0,0.0,0.001,0.0,0.0,0.0,0.0,1.0],"name":"lux_root"}],"samplers":[{"magFilter":9729,"minFilter":9987,"wrapS":10497,"wrapT":10497},{"magFilter":9729,"minFilter":9987,"wrapS":10497,"wrapT":10497},{"magFilter":9729,"minFilter":9987,"wrapS":10497,"wrapT":10497},{"magFilter":9729,"minFilter":9987,"wrapS":10497,"wrapT":10497}],"scenes":[{"nodes":[0,4]}],"textures":[{"sampler":0,"source":0},{"sampler":1,"source":1},{"sampler":2,"source":2},{"sampler":3,"source":3}]} 