{"accessors":[{"bufferView":0,"componentType":5126,"count":22581,"max":[15.594204902648926,6.094997882843018,0.5699999928474426],"min":[10.389102935791016,5.608605861663818,0.5699999928474426],"type":"VEC3"},{"bufferView":1,"componentType":5126,"count":22581,"type":"VEC3"},{"bufferView":2,"componentType":5126,"count":22581,"type":"VEC2"},{"bufferView":3,"componentType":5125,"count":22581,"type":"SCALAR"},{"bufferView":4,"componentType":5126,"count":97497,"max":[19.0,8.406158447265625,1.0346174240112305],"min":[-0.00900768581777811,0.19889186322689056,-0.20138037204742432],"type":"VEC3"},{"bufferView":5,"componentType":5126,"count":97497,"type":"VEC3"},{"bufferView":6,"componentType":5126,"count":97497,"type":"VEC2"},{"bufferView":7,"componentType":5125,"count":97497,"type":"SCALAR"}],"asset":{"generator":"Luxion KeyShot","version":"2.0"},"bufferViews":[{"buffer":0,"byteLength":270972,"byteOffset":0,"byteStride":12},{"buffer":0,"byteLength":270972,"byteOffset":270972,"byteStride":12},{"buffer":0,"byteLength":180648,"byteOffset":541944,"byteStride":8},{"buffer":0,"byteLength":90324,"byteOffset":722592},{"buffer":0,"byteLength":1169964,"byteOffset":812916,"byteStride":12},{"buffer":0,"byteLength":1169964,"byteOffset":1982880,"byteStride":12},{"buffer":0,"byteLength":779976,"byteOffset":3152844,"byteStride":8},{"buffer":0,"byteLength":389988,"byteOffset":3932820}],"buffers":[{"byteLength":4322808,"uri":"./铜尺精简版_resources/铜尺精简版.bin"}],"cameras":[{"name":"active","perspective":{"aspectRatio":1.0,"yfov":0.6911154697478635,"zfar":33.85749053955078,"znear":21.49835777282715},"type":"perspective"}],"extensionsUsed":["KHR_materials_transmission"],"images":[{"uri":"./铜尺精简版_resources/mesh_1_560907032_occlusion.jpeg"},{"uri":"./铜尺精简版_resources/mesh_0_1018_normal.jpeg"},{"uri":"./铜尺精简版_resources/mesh_0_1018_occlusion.jpeg"},{"uri":"./铜尺精简版_resources/mesh_0_1018_roughness_metalness_transmission.jpeg"}],"materials":[{"alphaMode":"MASK","doubleSided":true,"extensions":{"KHR_materials_transmission":{"transmissionFactor":0.01649296283721924}},"name":"Plastic Cloudy Rough White 3mm #1","occlusionTexture":{"index":0},"pbrMetallicRoughness":{"baseColorFactor":[0.360360324382782,0.12012012302875519,0.0,1.0],"metallicFactor":0.0,"roughnessFactor":0.3162277638912201}},{"doubleSided":true,"name":"Aluminum Brushed 90° #1","normalTexture":{"index":1,"scale":1},"occlusionTexture":{"index":2},"pbrMetallicRoughness":{"baseColorFactor":[0.6096096038818359,0.4313505291938782,0.07483229786157608,1.0],"metallicRoughnessTexture":{"index":3}}}],"meshes":[{"name":"mesh_1-mesh","primitives":[{"attributes":{"NORMAL":1,"POSITION":0,"TEXCOORD_0":2},"indices":3,"material":0,"mode":4}]},{"name":"mesh_0-mesh","primitives":[{"attributes":{"NORMAL":5,"POSITION":4,"TEXCOORD_0":6},"indices":7,"material":1,"mode":4}]}],"nodes":[{"camera":0,"matrix":[0.0008878892437574866,-1.9515750526721832e-10,0.0004600572598442354,0.0,0.0001908777936101885,0.0009098671147272184,-0.000368384931711833,0.0,-0.0004185909032821655,0.00041489973664283754,0.0008078612685203553,0.0,-0.012244719505310059,0.015632696151733398,0.021994815826416016,1.0],"name":"active"},{"mesh":0,"name":"mesh_1"},{"mesh":1,"name":"mesh_0"},{"children":[1,2],"name":"mesh_triangles"},{"children":[3],"matrix":[1.0,0.0,0.0,0.0,0.0,1.0,0.0,0.0,0.0,0.0,1.0,0.0,-9.495495796203613,-0.20000000298023224,-0.4173087179660797,1.0],"name":"铜尺"},{"children":[4],"name":"Default"},{"children":[5],"matrix":[0.001,0.0,0.0,0.0,0.0,0.001,0.0,0.0,0.0,0.0,0.001,0.0,0.0,0.0,0.0,1.0],"name":"lux_root"}],"samplers":[{"magFilter":9729,"minFilter":9987,"wrapS":10497,"wrapT":10497},{"magFilter":9729,"minFilter":9987,"wrapS":10497,"wrapT":10497},{"magFilter":9729,"minFilter":9987,"wrapS":10497,"wrapT":10497},{"magFilter":9729,"minFilter":9987,"wrapS":10497,"wrapT":10497}],"scenes":[{"nodes":[0,6]}],"textures":[{"sampler":0,"source":0},{"sampler":1,"source":1},{"sampler":2,"source":2},{"sampler":3,"source":3}]}   