{"accessors":[{"bufferView":0,"componentType":5126,"count":434511,"max":[19.0,8.406158447265625,1.0346174240112305],"min":[-0.00900768581777811,0.20000000298023224,-0.20000000298023224],"type":"VEC3"},{"bufferView":1,"componentType":5126,"count":434511,"type":"VEC3"},{"bufferView":2,"componentType":5126,"count":434511,"type":"VEC2"},{"bufferView":3,"componentType":5125,"count":434511,"type":"SCALAR"},{"bufferView":4,"componentType":5126,"count":22581,"max":[15.594204902648926,6.094997882843018,0.5699999928474426],"min":[10.389102935791016,5.608605861663818,0.5699999928474426],"type":"VEC3"},{"bufferView":5,"componentType":5126,"count":22581,"type":"VEC3"},{"bufferView":6,"componentType":5126,"count":22581,"type":"VEC2"},{"bufferView":7,"componentType":5125,"count":22581,"type":"SCALAR"}],"asset":{"generator":"Luxion KeyShot","version":"2.0"},"bufferViews":[{"buffer":0,"byteLength":5214132,"byteOffset":0,"byteStride":12},{"buffer":0,"byteLength":5214132,"byteOffset":5214132,"byteStride":12},{"buffer":0,"byteLength":3476088,"byteOffset":10428264,"byteStride":8},{"buffer":0,"byteLength":1738044,"byteOffset":13904352},{"buffer":0,"byteLength":270972,"byteOffset":15642396,"byteStride":12},{"buffer":0,"byteLength":270972,"byteOffset":15913368,"byteStride":12},{"buffer":0,"byteLength":180648,"byteOffset":16184340,"byteStride":8},{"buffer":0,"byteLength":90324,"byteOffset":16364988}],"buffers":[{"byteLength":16455312,"uri":"./铜尺_resources/铜尺.bin"}],"cameras":[{"name":"active","perspective":{"aspectRatio":1.0,"yfov":0.6911154697478635,"zfar":46.068782806396484,"znear":34.27101135253906},"type":"perspective"}],"extensionsUsed":["KHR_materials_transmission"],"images":[{"uri":"./铜尺_resources/mesh_0_560907030_normal.jpeg"},{"uri":"./铜尺_resources/mesh_0_560907030_occlusion.jpeg"},{"uri":"./铜尺_resources/mesh_0_560907030_roughness_metalness_transmission.jpeg"},{"uri":"./铜尺_resources/mesh_1_560907032_occlusion.jpeg"}],"materials":[{"doubleSided":true,"name":"Aluminum Brushed 90° #1","normalTexture":{"index":0,"scale":1},"occlusionTexture":{"index":1},"pbrMetallicRoughness":{"baseColorFactor":[0.6096096038818359,0.4313505291938782,0.07483229786157608,1.0],"metallicRoughnessTexture":{"index":2}}},{"alphaMode":"MASK","doubleSided":true,"extensions":{"KHR_materials_transmission":{"transmissionFactor":0.01649296283721924}},"name":"Plastic Cloudy Rough White 3mm #1","occlusionTexture":{"index":3},"pbrMetallicRoughness":{"baseColorFactor":[0.360360324382782,0.12012012302875519,0.0,1.0],"metallicFactor":0.0,"roughnessFactor":0.3162277638912201}}],"meshes":[{"name":"mesh_0-mesh","primitives":[{"attributes":{"NORMAL":1,"POSITION":0,"TEXCOORD_0":2},"indices":3,"material":0,"mode":4}]},{"name":"mesh_1-mesh","primitives":[{"attributes":{"NORMAL":5,"POSITION":4,"TEXCOORD_0":6},"indices":7,"material":1,"mode":4}]}],"nodes":[{"camera":0,"matrix":[0.000854124346085826,-2.0315607573984095e-10,0.0005200688590087275,0.0,5.877094381121756e-05,0.0009935943680741072,-9.652085724292127e-05,0.0,-0.000516737461090088,0.00011300574988126755,0.0008486531376838684,0.0,-0.01923796844482422,0.009148089408874512,0.03494808578491211,1.0],"name":"active"},{"mesh":0,"name":"mesh_0"},{"mesh":1,"name":"mesh_1"},{"children":[1,2],"name":"mesh_triangles"},{"children":[3],"matrix":[1.0,0.0,0.0,0.0,0.0,1.0,0.0,0.0,0.0,0.0,1.0,0.0,-9.495495796203613,-0.20000000298023224,-0.4173087179660797,1.0],"name":"铜尺"},{"children":[4],"name":"Default"},{"children":[5],"matrix":[0.001,0.0,0.0,0.0,0.0,0.001,0.0,0.0,0.0,0.0,0.001,0.0,0.0,0.0,0.0,1.0],"name":"lux_root"}],"samplers":[{"magFilter":9729,"minFilter":9987,"wrapS":10497,"wrapT":10497},{"magFilter":9729,"minFilter":9987,"wrapS":10497,"wrapT":10497},{"magFilter":9729,"minFilter":9987,"wrapS":10497,"wrapT":10497},{"magFilter":9729,"minFilter":9987,"wrapS":10497,"wrapT":10497}],"scenes":[{"nodes":[0,6]}],"textures":[{"sampler":0,"source":0},{"sampler":1,"source":1},{"sampler":2,"source":2},{"sampler":3,"source":3}]}   