{"accessors":[{"bufferView":0,"componentType":5126,"count":24000,"max":[8.53994369506836,-17.037752151489258,1.581213116645813],"min":[-5.201610565185547,-18.38008689880371,0.21694815158843994],"type":"VEC3"},{"bufferView":1,"componentType":5126,"count":24000,"type":"VEC3"},{"bufferView":2,"componentType":5126,"count":24000,"type":"VEC2"},{"bufferView":3,"componentType":5125,"count":24000,"type":"SCALAR"},{"bufferView":4,"componentType":5126,"count":300000,"max":[25.939943313598633,-17.213863372802734,1.3980679512023926],"min":[9.490056037902832,-18.209999084472656,0.4019314646720886],"type":"VEC3"},{"bufferView":5,"componentType":5126,"count":300000,"type":"VEC3"},{"bufferView":6,"componentType":5126,"count":300000,"type":"VEC2"},{"bufferView":7,"componentType":5125,"count":300000,"type":"SCALAR"},{"bufferView":8,"componentType":5126,"count":392268,"max":[4.300000190734863,-16.600000381469727,1.649999976158142],"min":[-4.300000190734863,-18.799949645996094,-1.0499999523162842],"type":"VEC3"},{"bufferView":9,"componentType":5126,"count":392268,"type":"VEC3"},{"bufferView":10,"componentType":5126,"count":392268,"type":"VEC2"},{"bufferView":11,"componentType":5125,"count":392268,"type":"SCALAR"},{"bufferView":12,"componentType":5126,"count":103128,"max":[10.238044738769531,-15.786026000976563,2.819758653640747],"min":[8.461955070495605,-19.6200008392334,-1.019758701324463],"type":"VEC3"},{"bufferView":13,"componentType":5126,"count":103128,"type":"VEC3"},{"bufferView":14,"componentType":5126,"count":103128,"type":"VEC2"},{"bufferView":15,"componentType":5125,"count":103128,"type":"SCALAR"},{"bufferView":16,"componentType":5126,"count":24000,"max":[2.0,-5.000070571899414,1.4500000476837158],"min":[-2.0,-8.999929428100586,-1.4500058889389038],"type":"VEC3"},{"bufferView":17,"componentType":5126,"count":24000,"type":"VEC3"},{"bufferView":18,"componentType":5126,"count":24000,"type":"VEC2"},{"bufferView":19,"componentType":5125,"count":24000,"type":"SCALAR"},{"bufferView":20,"componentType":5126,"count":24000,"max":[5.785720348358154,3.446704864501953,3.681189775466919],"min":[-5.784998416900635,-7.534458160400391,-3.6871440410614014],"type":"VEC3"},{"bufferView":21,"componentType":5126,"count":24000,"type":"VEC3"},{"bufferView":22,"componentType":5126,"count":24000,"type":"VEC2"},{"bufferView":23,"componentType":5125,"count":24000,"type":"SCALAR"},{"bufferView":24,"componentType":5126,"count":3000,"max":[1.4067860841751099,18.50278663635254,1.399999976158142],"min":[-1.4005380868911743,3.5999999046325684,-1.4011152982711792],"type":"VEC3"},{"bufferView":25,"componentType":5126,"count":3000,"type":"VEC3"},{"bufferView":26,"componentType":5126,"count":3000,"type":"VEC2"},{"bufferView":27,"componentType":5125,"count":3000,"type":"SCALAR"},{"bufferView":28,"componentType":5126,"count":24000,"max":[27.501855850219727,-16.80716896057129,1.7922792434692383],"min":[25.707658767700195,-18.5921630859375,0.007720811292529106],"type":"VEC3"},{"bufferView":29,"componentType":5126,"count":24000,"type":"VEC3"},{"bufferView":30,"componentType":5126,"count":24000,"type":"VEC2"},{"bufferView":31,"componentType":5125,"count":24000,"type":"SCALAR"},{"bufferView":32,"componentType":5126,"count":7848,"max":[6.967404842376709,-3.997251510620117,0.4000000059604645],"min":[-6.967408180236816,-50.4812126159668,-0.4000000059604645],"type":"VEC3"},{"bufferView":33,"componentType":5126,"count":7848,"type":"VEC3"},{"bufferView":34,"componentType":5126,"count":7848,"type":"VEC2"},{"bufferView":35,"componentType":5125,"count":7848,"type":"SCALAR"}],"asset":{"generator":"Luxion KeyShot","version":"2.0"},"bufferViews":[{"buffer":0,"byteLength":288000,"byteOffset":0,"byteStride":12},{"buffer":0,"byteLength":288000,"byteOffset":288000,"byteStride":12},{"buffer":0,"byteLength":192000,"byteOffset":576000,"byteStride":8},{"buffer":0,"byteLength":96000,"byteOffset":768000},{"buffer":0,"byteLength":3600000,"byteOffset":864000,"byteStride":12},{"buffer":0,"byteLength":3600000,"byteOffset":4464000,"byteStride":12},{"buffer":0,"byteLength":2400000,"byteOffset":8064000,"byteStride":8},{"buffer":0,"byteLength":1200000,"byteOffset":10464000},{"buffer":0,"byteLength":4707216,"byteOffset":11664000,"byteStride":12},{"buffer":0,"byteLength":4707216,"byteOffset":16371216,"byteStride":12},{"buffer":0,"byteLength":3138144,"byteOffset":21078432,"byteStride":8},{"buffer":0,"byteLength":1569072,"byteOffset":24216576},{"buffer":0,"byteLength":1237536,"byteOffset":25785648,"byteStride":12},{"buffer":0,"byteLength":1237536,"byteOffset":27023184,"byteStride":12},{"buffer":0,"byteLength":825024,"byteOffset":28260720,"byteStride":8},{"buffer":0,"byteLength":412512,"byteOffset":29085744},{"buffer":0,"byteLength":288000,"byteOffset":29498256,"byteStride":12},{"buffer":0,"byteLength":288000,"byteOffset":29786256,"byteStride":12},{"buffer":0,"byteLength":192000,"byteOffset":30074256,"byteStride":8},{"buffer":0,"byteLength":96000,"byteOffset":30266256},{"buffer":0,"byteLength":288000,"byteOffset":30362256,"byteStride":12},{"buffer":0,"byteLength":288000,"byteOffset":30650256,"byteStride":12},{"buffer":0,"byteLength":192000,"byteOffset":30938256,"byteStride":8},{"buffer":0,"byteLength":96000,"byteOffset":31130256},{"buffer":0,"byteLength":36000,"byteOffset":31226256,"byteStride":12},{"buffer":0,"byteLength":36000,"byteOffset":31262256,"byteStride":12},{"buffer":0,"byteLength":24000,"byteOffset":31298256,"byteStride":8},{"buffer":0,"byteLength":12000,"byteOffset":31322256},{"buffer":0,"byteLength":288000,"byteOffset":31334256,"byteStride":12},{"buffer":0,"byteLength":288000,"byteOffset":31622256,"byteStride":12},{"buffer":0,"byteLength":192000,"byteOffset":31910256,"byteStride":8},{"buffer":0,"byteLength":96000,"byteOffset":32102256},{"buffer":0,"byteLength":94176,"byteOffset":32198256,"byteStride":12},{"buffer":0,"byteLength":94176,"byteOffset":32292432,"byteStride":12},{"buffer":0,"byteLength":62784,"byteOffset":32386608,"byteStride":8},{"buffer":0,"byteLength":31392,"byteOffset":32449392}],"buffers":[{"byteLength":32480784,"uri":"./圆规_resources/圆规.bin"}],"cameras":[{"name":"active","perspective":{"aspectRatio":1.0,"yfov":0.6911154697478635,"zfar":223.2194366455078,"znear":192.10047912597656},"type":"perspective"}],"images":[{"uri":"./圆规_resources/mesh_0_1_542597280_normal.jpeg"},{"uri":"./圆规_resources/mesh_0_1_542597280_occlusion.jpeg"},{"uri":"./圆规_resources/mesh_0_1_542597280_color.jpeg"},{"uri":"./圆规_resources/mesh_0_1_542597280_roughness_metalness_transmission.jpeg"},{"uri":"./圆规_resources/mesh_0_0_542597282_normal.jpeg"},{"uri":"./圆规_resources/mesh_0_0_542597282_occlusion.jpeg"},{"uri":"./圆规_resources/mesh_0_0_542597282_color.jpeg"},{"uri":"./圆规_resources/mesh_0_0_542597282_roughness_metalness_transmission.jpeg"},{"uri":"./圆规_resources/mesh_2_542597263_normal.jpeg"},{"uri":"./圆规_resources/mesh_2_542597263_occlusion.jpeg"},{"uri":"./圆规_resources/mesh_2_542597263_color.jpeg"},{"uri":"./圆规_resources/mesh_2_542597263_roughness_metalness_transmission.jpeg"},{"uri":"./圆规_resources/mesh_3_542597265_normal.jpeg"},{"uri":"./圆规_resources/mesh_3_542597265_occlusion.jpeg"},{"uri":"./圆规_resources/mesh_3_542597265_color.jpeg"},{"uri":"./圆规_resources/mesh_3_542597265_roughness_metalness_transmission.jpeg"},{"uri":"./圆规_resources/mesh_1_542597284_normal.jpeg"},{"uri":"./圆规_resources/mesh_1_542597284_occlusion.jpeg"},{"uri":"./圆规_resources/mesh_1_542597284_color.jpeg"},{"uri":"./圆规_resources/mesh_1_542597284_roughness_metalness_transmission.jpeg"},{"uri":"./圆规_resources/mesh_7_542597286_normal.jpeg"},{"uri":"./圆规_resources/mesh_7_542597286_occlusion.jpeg"},{"uri":"./圆规_resources/mesh_7_542597286_color.jpeg"},{"uri":"./圆规_resources/mesh_7_542597286_roughness_metalness_transmission.jpeg"},{"uri":"./圆规_resources/mesh_6_542597290_normal.jpeg"},{"uri":"./圆规_resources/mesh_6_542597290_occlusion.jpeg"},{"uri":"./圆规_resources/mesh_6_542597290_color.jpeg"},{"uri":"./圆规_resources/mesh_6_542597290_roughness_metalness_transmission.jpeg"},{"uri":"./圆规_resources/mesh_4_542597292_normal.jpeg"},{"uri":"./圆规_resources/mesh_4_542597292_occlusion.jpeg"},{"uri":"./圆规_resources/mesh_4_542597292_color.jpeg"},{"uri":"./圆规_resources/mesh_4_542597292_roughness_metalness_transmission.jpeg"},{"uri":"./圆规_resources/mesh_10_normal.jpeg"},{"uri":"./圆规_resources/mesh_10_occlusion.jpeg"},{"uri":"./圆规_resources/mesh_10_color.jpeg"},{"uri":"./圆规_resources/mesh_10_roughness_metalness_transmission.jpeg"}],"materials":[{"doubleSided":true,"name":"Painted Chipped Metal #1","normalTexture":{"index":0,"scale":1},"occlusionTexture":{"index":1},"pbrMetallicRoughness":{"baseColorTexture":{"index":2},"metallicRoughnessTexture":{"index":3}}},{"doubleSided":true,"name":"Painted Chipped Metal #1","normalTexture":{"index":4,"scale":1},"occlusionTexture":{"index":5},"pbrMetallicRoughness":{"baseColorTexture":{"index":6},"metallicRoughnessTexture":{"index":7}}},{"doubleSided":true,"name":"Painted Chipped Metal #1","normalTexture":{"index":8,"scale":1},"occlusionTexture":{"index":9},"pbrMetallicRoughness":{"baseColorTexture":{"index":10},"metallicRoughnessTexture":{"index":11}}},{"doubleSided":true,"name":"Painted Chipped Metal #1","normalTexture":{"index":12,"scale":1},"occlusionTexture":{"index":13},"pbrMetallicRoughness":{"baseColorTexture":{"index":14},"metallicRoughnessTexture":{"index":15}}},{"doubleSided":true,"name":"Painted Chipped Metal #1","normalTexture":{"index":16,"scale":1},"occlusionTexture":{"index":17},"pbrMetallicRoughness":{"baseColorTexture":{"index":18},"metallicRoughnessTexture":{"index":19}}},{"doubleSided":true,"name":"Painted Chipped Metal #1","normalTexture":{"index":20,"scale":1},"occlusionTexture":{"index":21},"pbrMetallicRoughness":{"baseColorTexture":{"index":22},"metallicRoughnessTexture":{"index":23}}},{"doubleSided":true,"name":"Painted Chipped Metal #1","normalTexture":{"index":24,"scale":1},"occlusionTexture":{"index":25},"pbrMetallicRoughness":{"baseColorTexture":{"index":26},"metallicRoughnessTexture":{"index":27}}},{"doubleSided":true,"name":"Painted Chipped Metal #1","normalTexture":{"index":28,"scale":1},"occlusionTexture":{"index":29},"pbrMetallicRoughness":{"baseColorTexture":{"index":30},"metallicRoughnessTexture":{"index":31}}},{"doubleSided":true,"name":"Painted Chipped Metal #1","normalTexture":{"index":32,"scale":1},"occlusionTexture":{"index":33},"pbrMetallicRoughness":{"baseColorTexture":{"index":34},"metallicRoughnessTexture":{"index":35}}}],"meshes":[{"name":"mesh_0_1-mesh","primitives":[{"attributes":{"NORMAL":1,"POSITION":0,"TEXCOORD_0":2},"indices":3,"material":0,"mode":4}]},{"name":"mesh_0_0-mesh","primitives":[{"attributes":{"NORMAL":5,"POSITION":4,"TEXCOORD_0":6},"indices":7,"material":1,"mode":4}]},{"name":"mesh_2-mesh","primitives":[{"attributes":{"NORMAL":9,"POSITION":8,"TEXCOORD_0":10},"indices":11,"material":2,"mode":4}]},{"name":"mesh_3-mesh","primitives":[{"attributes":{"NORMAL":13,"POSITION":12,"TEXCOORD_0":14},"indices":15,"material":3,"mode":4}]},{"name":"mesh_1-mesh","primitives":[{"attributes":{"NORMAL":17,"POSITION":16,"TEXCOORD_0":18},"indices":19,"material":4,"mode":4}]},{"name":"mesh_7-mesh","primitives":[{"attributes":{"NORMAL":21,"POSITION":20,"TEXCOORD_0":22},"indices":23,"material":5,"mode":4}]},{"name":"mesh_6-mesh","primitives":[{"attributes":{"NORMAL":25,"POSITION":24,"TEXCOORD_0":26},"indices":27,"material":6,"mode":4}]},{"name":"mesh_4-mesh","primitives":[{"attributes":{"NORMAL":29,"POSITION":28,"TEXCOORD_0":30},"indices":31,"material":7,"mode":4}]},{"name":"mesh-mesh","primitives":[{"attributes":{"NORMAL":33,"POSITION":32,"TEXCOORD_0":34},"indices":35,"material":8,"mode":4}]}],"nodes":[{"camera":0,"matrix":[0.0009998237869940842,-1.7524233297816494e-10,-1.8770818580546217e-05,0.0,-6.4322912491408295e-06,0.0009394507746783672,-0.0003426234396605211,0.0,1.7634321004152297e-05,0.0003426838219165802,0.0009392852783203125,0.0,-3.626063093543053e-05,0.09941458892822266,0.1953604736328125,1.0],"name":"active"},{"mesh":0,"name":"mesh_0_1"},{"mesh":1,"name":"mesh_0_0"},{"children":[1,2],"name":"mesh_0_triangles"},{"mesh":2,"name":"mesh_2"},{"mesh":3,"name":"mesh_3"},{"mesh":4,"name":"mesh_1"},{"mesh":5,"name":"mesh_7"},{"mesh":6,"name":"mesh_6"},{"mesh":7,"name":"mesh_4"},{"children":[3,4,5,6,7,8,9],"name":"mesh_triangles"},{"children":[10],"matrix":[1.0,0.0,0.0,0.0,0.0,1.0,0.0,0.0,0.0,0.0,1.0,0.0,-10.262537002563477,44.82672882080078,0.0,1.0],"name":"圆规"},{"matrix":[1.0,0.0,0.0,0.0,0.0,1.0,0.0,0.0,0.0,0.0,1.0,0.0,-10.16899986472953,-5.508336697201173,0.0,1.0],"mesh":8,"name":"mesh"},{"children":[12],"matrix":[1.0,0.0,0.0,0.0,0.0,1.0,0.0,0.0,0.0,0.0,1.0,0.0,1.6689300537109375e-06,50.4812126159668,0.0,1.0],"name":"Export_文件夹 02"},{"children":[11,13],"name":"Default"},{"children":[14],"matrix":[0.001,0.0,0.0,0.0,0.0,0.001,0.0,0.0,0.0,0.0,0.001,0.0,0.0,0.0,0.0,1.0],"name":"lux_root"}],"samplers":[{"magFilter":9729,"minFilter":9987,"wrapS":10497,"wrapT":10497},{"magFilter":9729,"minFilter":9987,"wrapS":10497,"wrapT":10497},{"magFilter":9729,"minFilter":9987,"wrapS":10497,"wrapT":10497},{"magFilter":9729,"minFilter":9987,"wrapS":10497,"wrapT":10497},{"magFilter":9729,"minFilter":9987,"wrapS":10497,"wrapT":10497},{"magFilter":9729,"minFilter":9987,"wrapS":10497,"wrapT":10497},{"magFilter":9729,"minFilter":9987,"wrapS":10497,"wrapT":10497},{"magFilter":9729,"minFilter":9987,"wrapS":10497,"wrapT":10497},{"magFilter":9729,"minFilter":9987,"wrapS":10497,"wrapT":10497},{"magFilter":9729,"minFilter":9987,"wrapS":10497,"wrapT":10497},{"magFilter":9729,"minFilter":9987,"wrapS":10497,"wrapT":10497},{"magFilter":9729,"minFilter":9987,"wrapS":10497,"wrapT":10497},{"magFilter":9729,"minFilter":9987,"wrapS":10497,"wrapT":10497},{"magFilter":9729,"minFilter":9987,"wrapS":10497,"wrapT":10497},{"magFilter":9729,"minFilter":9987,"wrapS":10497,"wrapT":10497},{"magFilter":9729,"minFilter":9987,"wrapS":10497,"wrapT":10497},{"magFilter":9729,"minFilter":9987,"wrapS":10497,"wrapT":10497},{"magFilter":9729,"minFilter":9987,"wrapS":10497,"wrapT":10497},{"magFilter":9729,"minFilter":9987,"wrapS":10497,"wrapT":10497},{"magFilter":9729,"minFilter":9987,"wrapS":10497,"wrapT":10497},{"magFilter":9729,"minFilter":9987,"wrapS":10497,"wrapT":10497},{"magFilter":9729,"minFilter":9987,"wrapS":10497,"wrapT":10497},{"magFilter":9729,"minFilter":9987,"wrapS":10497,"wrapT":10497},{"magFilter":9729,"minFilter":9987,"wrapS":10497,"wrapT":10497},{"magFilter":9729,"minFilter":9987,"wrapS":10497,"wrapT":10497},{"magFilter":9729,"minFilter":9987,"wrapS":10497,"wrapT":10497},{"magFilter":9729,"minFilter":9987,"wrapS":10497,"wrapT":10497},{"magFilter":9729,"minFilter":9987,"wrapS":10497,"wrapT":10497},{"magFilter":9729,"minFilter":9987,"wrapS":10497,"wrapT":10497},{"magFilter":9729,"minFilter":9987,"wrapS":10497,"wrapT":10497},{"magFilter":9729,"minFilter":9987,"wrapS":10497,"wrapT":10497},{"magFilter":9729,"minFilter":9987,"wrapS":10497,"wrapT":10497},{"magFilter":9729,"minFilter":9987,"wrapS":10497,"wrapT":10497},{"magFilter":9729,"minFilter":9987,"wrapS":10497,"wrapT":10497},{"magFilter":9729,"minFilter":9987,"wrapS":10497,"wrapT":10497},{"magFilter":9729,"minFilter":9987,"wrapS":10497,"wrapT":10497}],"scenes":[{"nodes":[0,15]}],"textures":[{"sampler":0,"source":0},{"sampler":1,"source":1},{"sampler":2,"source":2},{"sampler":3,"source":3},{"sampler":4,"source":4},{"sampler":5,"source":5},{"sampler":6,"source":6},{"sampler":7,"source":7},{"sampler":8,"source":8},{"sampler":9,"source":9},{"sampler":10,"source":10},{"sampler":11,"source":11},{"sampler":12,"source":12},{"sampler":13,"source":13},{"sampler":14,"source":14},{"sampler":15,"source":15},{"sampler":16,"source":16},{"sampler":17,"source":17},{"sampler":18,"source":18},{"sampler":19,"source":19},{"sampler":20,"source":20},{"sampler":21,"source":21},{"sampler":22,"source":22},{"sampler":23,"source":23},{"sampler":24,"source":24},{"sampler":25,"source":25},{"sampler":26,"source":26},{"sampler":27,"source":27},{"sampler":28,"source":28},{"sampler":29,"source":29},{"sampler":30,"source":30},{"sampler":31,"source":31},{"sampler":32,"source":32},{"sampler":33,"source":33},{"sampler":34,"source":34},{"sampler":35,"source":35}]} 