<?xml version="1.0" standalone="no"?><!DOCTYPE svg PUBLIC "-//W3C//DTD SVG 1.1//EN" "http://www.w3.org/Graphics/SVG/1.1/DTD/svg11.dtd"><svg t="1708142591137" class="icon" viewBox="0 0 1024 1024" version="1.1" xmlns="http://www.w3.org/2000/svg" p-id="2175" xmlns:xlink="http://www.w3.org/1999/xlink" width="200" height="200"><path d="M706.574 234.574l-474 474c-23.432 23.431-23.432 61.42 0 84.852 23.431 23.432 61.42 23.432 84.852 0l474-474c23.432-23.431 23.432-61.42 0-84.852-23.431-23.432-61.42-23.432-84.852 0z" fill="#333333" p-id="2176"></path><path d="M791.426 708.574l-474-474c-23.431-23.432-61.42-23.432-84.852 0-23.432 23.431-23.432 61.42 0 84.852l474 474c23.431 23.432 61.42 23.432 84.852 0 23.432-23.431 23.432-61.42 0-84.852z" fill="#333333" p-id="2177"></path></svg>