<?xml version="1.0" standalone="no"?><!DOCTYPE svg PUBLIC "-//W3C//DTD SVG 1.1//EN" "http://www.w3.org/Graphics/SVG/1.1/DTD/svg11.dtd"><svg t="1708142810837" class="icon" viewBox="0 0 1024 1024" version="1.1" xmlns="http://www.w3.org/2000/svg" p-id="6010" xmlns:xlink="http://www.w3.org/1999/xlink" width="200" height="200"><path d="M830.862222 707.982222c-21.333333 90.225778-62.008889 159.573333-121.969778 208.042667-61.781333 47.957333-134.883556 71.964444-219.363555 71.964444-76.401778-1.763556-140.174222-20.48-191.317333-55.978666-51.996444-34.247111-89.770667-73.784889-113.322667-118.670223a1089.422222 1089.422222 0 0 1-19.342222-41.984 273.806222 273.806222 0 0 1-13.312-51.996444C145.578667 680.220444 142.222222 605.127111 142.222222 494.023111 142.222222 381.098667 145.578667 305.493333 152.234667 267.320889 159.288889 229.091556 170.211556 198.200889 184.888889 174.648889c23.552-44.885333 61.326222-84.878222 113.322667-120.035556C349.354667 19.171556 413.127111 0.967111 489.528889 0c93.809778 0.910222 170.268444 28.672 229.376 83.342222 59.107556 55.125333 96.426667 123.335111 111.957333 204.686222H674.872889a213.845333 213.845333 0 0 0-65.308445-100.010666c-32.881778-26.225778-72.874667-39.822222-120.035555-40.675556-34.645333 0.853333-64.398222 7.793778-89.315556 20.650667a185.912889 185.912889 0 0 0-61.326222 50.005333c-19.114667 20.878222-31.800889 47.786667-38.001778 80.668445-7.111111 34.702222-10.638222 99.783111-10.638222 195.356444 0 95.573333 3.527111 160.199111 10.638222 193.991111 6.257778 33.792 18.887111 61.098667 38.001778 81.976889 15.530667 20.024889 36.010667 36.238222 61.326222 48.696889 24.917333 14.620444 54.670222 21.959111 89.315556 21.959111 82.716444 0 144.497778-44.202667 185.344-132.664889h155.989333z" fill="#2c2c2c" p-id="6011"></path></svg>